<?xml version="1.0" encoding="UTF-8"?>
<!DOCTYPE svg PUBLIC "-//W3C//DTD SVG 1.1//EN" "http://www.w3.org/Graphics/SVG/1.1/DTD/svg11.dtd">
<svg xmlns="http://www.w3.org/2000/svg" version="1.1" width="100px" height="130px" style="shape-rendering:geometricPrecision; text-rendering:geometricPrecision; image-rendering:optimizeQuality; fill-rule:evenodd; clip-rule:evenodd" xmlns:xlink="http://www.w3.org/1999/xlink">
<g><path style="opacity:1" fill="#dd0000" d="M -0.5,-0.5 C 32.8333,-0.5 66.1667,-0.5 99.5,-0.5C 99.5,8.16667 99.5,16.8333 99.5,25.5C 99.1667,25.5 98.8333,25.5 98.5,25.5C 98.5,24.8333 98.1667,24.5 97.5,24.5C 95.9522,23.2057 93.9522,22.5391 91.5,22.5C 88.1453,22.7238 84.812,23.0572 81.5,23.5C 81.5,24.5 81.5,25.5 81.5,26.5C 81.5,26.8333 81.5,27.1667 81.5,27.5C 80.1641,25.4677 78.4974,23.6343 76.5,22C 70.796,21.4698 65.1294,21.8032 59.5,23C 58.5399,26.73 58.2065,30.5633 58.5,34.5C 58.5,35.8333 58.5,37.1667 58.5,38.5C 57.6814,40.7722 57.0147,43.1055 56.5,45.5C 55.7387,46.3909 54.7387,47.0576 53.5,47.5C 52.8333,51.5 52.1667,55.5 51.5,59.5C 50.914,59.7093 50.414,60.0426 50,60.5C 49.447,63.3592 49.6137,66.1925 50.5,69C 48.5504,73.5791 47.5504,78.4125 47.5,83.5C 47.5,84.1667 47.5,84.8333 47.5,85.5C 46.2502,85.5774 45.4169,86.244 45,87.5C 44.6982,94.5747 42.5315,100.908 38.5,106.5C 39.1805,108.889 40.0138,111.222 41,113.5C 41.414,113.043 41.914,112.709 42.5,112.5C 46.3135,115.987 50.6469,117.653 55.5,117.5C 62.6535,112.194 68.9869,113.194 74.5,120.5C 75.889,117.009 78.2223,115.342 81.5,115.5C 82.4112,111.212 83.0779,106.879 83.5,102.5C 83.5,101.167 83.5,99.8333 83.5,98.5C 83.5,97.8333 83.5,97.1667 83.5,96.5C 86.7749,89.643 88.4415,82.3096 88.5,74.5C 92.1674,63.477 94.8341,52.1436 96.5,40.5C 97.1314,38.0248 98.1314,35.6915 99.5,33.5C 99.5,51.8333 99.5,70.1667 99.5,88.5C 98.5416,88.9528 97.7083,89.6195 97,90.5C 95.1864,97.7481 94.0198,105.081 93.5,112.5C 93.5,113.167 93.5,113.833 93.5,114.5C 91.9328,115.681 91.0995,117.347 91,119.5C 90.5017,122.817 90.335,126.15 90.5,129.5C 60.1667,129.5 29.8333,129.5 -0.5,129.5C -0.5,124.5 -0.5,119.5 -0.5,114.5C 7.37683,114.786 15.2102,114.453 23,113.5C 25.35,110.817 28.0167,108.484 31,106.5C 32.8294,102.851 35.1627,99.5177 38,96.5C 38.4966,94.1902 38.6633,91.8568 38.5,89.5C 44.042,72.7968 45.8753,55.4635 44,37.5C 43.6174,36.944 43.1174,36.6107 42.5,36.5C 42.5,36.1667 42.5,35.8333 42.5,35.5C 41.9409,31.4837 40.6075,27.817 38.5,24.5C 38.0472,23.5416 37.3805,22.7083 36.5,22C 30.4802,21.6987 24.4802,21.1987 18.5,20.5C 15.1766,21.4928 11.8433,22.4928 8.5,23.5C 8.37873,26.0018 8.21206,28.6685 8,31.5C 5.47758,37.4148 3.64425,43.5815 2.5,50C 2.60826,51.6811 3.27493,52.8478 4.5,53.5C 5.04309,53.56 5.37642,53.8933 5.5,54.5C 4.12285,56.2895 3.12285,58.2895 2.5,60.5C 3.62253,62.4816 3.62253,64.4816 2.5,66.5C 0.824855,68.456 1.15819,69.7893 3.5,70.5C 3.51234,73.142 2.17901,74.4754 -0.5,74.5C -0.5,49.5 -0.5,24.5 -0.5,-0.5 Z"/></g>
<g><path style="opacity:1" fill="#b61715" d="M 38.5,24.5 C 40.6075,27.817 41.9409,31.4837 42.5,35.5C 40.5,32.8333 38.5,30.1667 36.5,27.5C 36.5,26.1667 35.8333,25.5 34.5,25.5C 28.2657,24.1927 21.9324,24.1927 15.5,25.5C 14.8333,25.5 14.1667,25.5 13.5,25.5C 14.4293,24.6851 15.4293,23.8518 16.5,23C 24.0637,21.9487 31.397,22.4487 38.5,24.5 Z"/></g>
<g><path style="opacity:1" fill="#b90d0e" d="M 97.5,24.5 C 93.9581,24.1872 90.6248,24.5206 87.5,25.5C 85.5648,26.1495 83.5648,26.4828 81.5,26.5C 81.5,25.5 81.5,24.5 81.5,23.5C 84.812,23.0572 88.1453,22.7238 91.5,22.5C 93.9522,22.5391 95.9522,23.2057 97.5,24.5 Z"/></g>
<g><path style="opacity:1" fill="#d5666a" d="M 34.5,25.5 C 28.1082,25.2487 21.7748,25.582 15.5,26.5C 15.5,26.1667 15.5,25.8333 15.5,25.5C 21.9324,24.1927 28.2657,24.1927 34.5,25.5 Z"/></g>
<g><path style="opacity:1" fill="#de696d" d="M 87.5,25.5 C 90.6248,24.5206 93.9581,24.1872 97.5,24.5C 98.1667,24.5 98.5,24.8333 98.5,25.5C 98.7947,27.7354 98.4614,29.7354 97.5,31.5C 97.5,29.8333 97.5,28.1667 97.5,26.5C 94.3752,25.5206 91.0419,25.1872 87.5,25.5 Z"/></g>
<g><path style="opacity:1" fill="#ef9fa0" d="M 34.5,25.5 C 35.8333,25.5 36.5,26.1667 36.5,27.5C 29.513,26.2067 22.513,26.2067 15.5,27.5C 15.5,28.5 15.5,29.5 15.5,30.5C 14.8333,30.1667 14.1667,29.8333 13.5,29.5C 13.427,27.9731 14.0937,26.9731 15.5,26.5C 21.7748,25.582 28.1082,25.2487 34.5,25.5 Z"/></g>
<g><path style="opacity:1" fill="#eca7aa" d="M 66.5,25.5 C 69.8333,25.5 73.1667,25.5 76.5,25.5C 76.5,27.1667 76.5,28.8333 76.5,30.5C 76.1667,30.5 75.8333,30.5 75.5,30.5C 75.5,29.1667 75.5,27.8333 75.5,26.5C 72.8127,26.3359 70.146,26.5026 67.5,27C 66.3157,28.1455 66.3157,29.3121 67.5,30.5C 68.4054,31.7024 68.4054,33.0357 67.5,34.5C 66.0413,34.4326 64.7079,34.7659 63.5,35.5C 63.5,35.1667 63.5,34.8333 63.5,34.5C 63.5,33.8333 63.8333,33.5 64.5,33.5C 65.7122,31.7363 65.3788,30.0697 63.5,28.5C 64.7701,27.7124 65.7701,26.7124 66.5,25.5 Z"/></g>
<g><path style="opacity:1" fill="#ea9fa0" d="M 87.5,25.5 C 91.0419,25.1872 94.3752,25.5206 97.5,26.5C 94.4281,26.1826 91.4281,26.5159 88.5,27.5C 87.3047,28.9675 87.3047,30.4675 88.5,32C 87.7113,33.6255 86.7113,35.1255 85.5,36.5C 87.037,39.6853 86.3704,42.352 83.5,44.5C 83.8627,45.1835 84.1961,45.8501 84.5,46.5C 84.1667,46.5 83.8333,46.5 83.5,46.5C 82.8333,46.1667 82.1667,45.8333 81.5,45.5C 81.7329,43.9382 82.3995,42.6049 83.5,41.5C 84.404,40.791 84.7373,39.791 84.5,38.5C 83.1667,37.1667 83.1667,35.8333 84.5,34.5C 86.69,33.2524 87.0234,31.5857 85.5,29.5C 85.7329,27.9382 86.3995,26.6049 87.5,25.5 Z"/></g>
<g><path style="opacity:1" fill="#e73841" d="M 13.5,25.5 C 14.1667,25.5 14.8333,25.5 15.5,25.5C 15.5,25.8333 15.5,26.1667 15.5,26.5C 14.0937,26.9731 13.427,27.9731 13.5,29.5C 13.1583,30.3382 12.4916,30.6716 11.5,30.5C 10.5222,30.189 9.85549,29.5223 9.5,28.5C 10.6243,27.1408 11.9577,26.1408 13.5,25.5 Z"/></g>
<g><path style="opacity:1" fill="#f8dfdf" d="M 36.5,27.5 C 36.8333,28.8333 37.1667,30.1667 37.5,31.5C 30.8333,31.5 24.1667,31.5 17.5,31.5C 16.8333,31.5 16.1667,31.5 15.5,31.5C 15.5,31.1667 15.5,30.8333 15.5,30.5C 15.5,29.5 15.5,28.5 15.5,27.5C 22.513,26.2067 29.513,26.2067 36.5,27.5 Z"/></g>
<g><path style="opacity:1" fill="#ef4c52" d="M 87.5,25.5 C 86.3995,26.6049 85.7329,27.9382 85.5,29.5C 84.8333,29.5 84.5,29.8333 84.5,30.5C 83.5,30.5 82.5,30.5 81.5,30.5C 81.5,29.5 81.5,28.5 81.5,27.5C 81.5,27.1667 81.5,26.8333 81.5,26.5C 83.5648,26.4828 85.5648,26.1495 87.5,25.5 Z"/></g>
<g><path style="opacity:1" fill="#ef9d9f" d="M 36.5,27.5 C 38.5,30.1667 40.5,32.8333 42.5,35.5C 42.5,35.8333 42.5,36.1667 42.5,36.5C 42.5,37.5 42.5,38.5 42.5,39.5C 41.3127,37.9275 40.3127,36.2608 39.5,34.5C 39.1583,33.6618 38.4916,33.3284 37.5,33.5C 37.5,32.8333 37.5,32.1667 37.5,31.5C 37.1667,30.1667 36.8333,28.8333 36.5,27.5 Z"/></g>
<g><path style="opacity:1" fill="#c60c0c" d="M 81.5,27.5 C 81.5,28.5 81.5,29.5 81.5,30.5C 82.5,30.5 83.5,30.5 84.5,30.5C 84.5,31.8333 84.5,33.1667 84.5,34.5C 83.8333,34.5 83.1667,34.5 82.5,34.5C 81.5,34.5 80.5,34.5 79.5,34.5C 79.5,35.8333 79.5,37.1667 79.5,38.5C 80.5,38.5 81.5,38.5 82.5,38.5C 83.1667,38.5 83.8333,38.5 84.5,38.5C 84.7373,39.791 84.404,40.791 83.5,41.5C 81.2433,41.9617 79.2433,42.9617 77.5,44.5C 78.6888,45.4287 80.0222,45.762 81.5,45.5C 81.5,47.1667 81.5,48.8333 81.5,50.5C 77.5,49.8333 75.8333,51.5 76.5,55.5C 74.8333,55.5 73.1667,55.5 71.5,55.5C 71.5,54.8333 71.5,54.1667 71.5,53.5C 71.448,51.0971 71.7814,48.7638 72.5,46.5C 73.3382,46.1583 73.6716,45.4916 73.5,44.5C 74.9238,42.4855 75.5905,40.1522 75.5,37.5C 75.5,35.1667 75.5,32.8333 75.5,30.5C 75.8333,30.5 76.1667,30.5 76.5,30.5C 77.4614,28.7354 77.7947,26.7354 77.5,24.5C 73.6286,24.185 69.9619,24.5184 66.5,25.5C 63.7597,25.7556 61.4264,26.7556 59.5,28.5C 60.3805,29.9705 61.7139,30.8038 63.5,31C 64.2524,31.6708 64.5858,32.5041 64.5,33.5C 63.8333,33.5 63.5,33.8333 63.5,34.5C 61.8333,34.5 60.1667,34.5 58.5,34.5C 58.2065,30.5633 58.5399,26.73 59.5,23C 65.1294,21.8032 70.796,21.4698 76.5,22C 78.4974,23.6343 80.1641,25.4677 81.5,27.5 Z"/></g>
<g><path style="opacity:1" fill="#fee7e8" d="M 75.5,30.5 C 72.8333,30.5 70.1667,30.5 67.5,30.5C 66.3157,29.3121 66.3157,28.1455 67.5,27C 70.146,26.5026 72.8127,26.3359 75.5,26.5C 75.5,27.8333 75.5,29.1667 75.5,30.5 Z"/></g>
<g><path style="opacity:1" fill="#db4549" d="M 66.5,25.5 C 65.7701,26.7124 64.7701,27.7124 63.5,28.5C 65.3788,30.0697 65.7122,31.7363 64.5,33.5C 64.5858,32.5041 64.2524,31.6708 63.5,31C 61.7139,30.8038 60.3805,29.9705 59.5,28.5C 61.4264,26.7556 63.7597,25.7556 66.5,25.5 Z"/></g>
<g><path style="opacity:1" fill="#db6267" d="M 66.5,25.5 C 69.9619,24.5184 73.6286,24.185 77.5,24.5C 77.7947,26.7354 77.4614,28.7354 76.5,30.5C 76.5,28.8333 76.5,27.1667 76.5,25.5C 73.1667,25.5 69.8333,25.5 66.5,25.5 Z"/></g>
<g><path style="opacity:1" fill="#bfa6a5" d="M 17.5,31.5 C 24.1667,31.5 30.8333,31.5 37.5,31.5C 37.5,32.1667 37.5,32.8333 37.5,33.5C 30.8333,33.5 24.1667,33.5 17.5,33.5C 17.5,32.8333 17.5,32.1667 17.5,31.5 Z"/></g>
<g><path style="opacity:1" fill="#ad1112" d="M 13.5,29.5 C 14.1667,29.8333 14.8333,30.1667 15.5,30.5C 15.5,30.8333 15.5,31.1667 15.5,31.5C 15.2178,32.7777 14.5511,33.7777 13.5,34.5C 12.5,34.5 11.5,34.5 10.5,34.5C 10.8333,33.1667 11.1667,31.8333 11.5,30.5C 12.4916,30.6716 13.1583,30.3382 13.5,29.5 Z"/></g>
<g><path style="opacity:1" fill="#d9b8b6" d="M 67.5,30.5 C 70.1667,30.5 72.8333,30.5 75.5,30.5C 75.5,32.8333 75.5,35.1667 75.5,37.5C 75.1667,37.5 74.8333,37.5 74.5,37.5C 74.6567,36.1266 74.49,34.7932 74,33.5C 71.9592,34.4231 69.7925,34.7564 67.5,34.5C 68.4054,33.0357 68.4054,31.7024 67.5,30.5 Z"/></g>
<g><path style="opacity:1" fill="#a62828" d="M 85.5,29.5 C 87.0234,31.5857 86.69,33.2524 84.5,34.5C 84.5,33.1667 84.5,31.8333 84.5,30.5C 84.5,29.8333 84.8333,29.5 85.5,29.5 Z"/></g>
<g><path style="opacity:1" fill="#b81c1b" d="M 98.5,25.5 C 98.8333,25.5 99.1667,25.5 99.5,25.5C 99.5,28.1667 99.5,30.8333 99.5,33.5C 98.1314,35.6915 97.1314,38.0248 96.5,40.5C 96.5,39.1667 96.5,37.8333 96.5,36.5C 96.366,34.7085 96.6993,33.0418 97.5,31.5C 98.4614,29.7354 98.7947,27.7354 98.5,25.5 Z"/></g>
<g><path style="opacity:1" fill="#cd7d83" d="M 15.5,31.5 C 16.1667,31.5 16.8333,31.5 17.5,31.5C 17.5,32.1667 17.5,32.8333 17.5,33.5C 16.5,34.1667 15.5,34.8333 14.5,35.5C 14.1667,35.5 13.8333,35.5 13.5,35.5C 13.5,35.1667 13.5,34.8333 13.5,34.5C 14.5511,33.7777 15.2178,32.7777 15.5,31.5 Z"/></g>
<g><path style="opacity:1" fill="#cf0204" d="M 38.5,24.5 C 31.397,22.4487 24.0637,21.9487 16.5,23C 15.4293,23.8518 14.4293,24.6851 13.5,25.5C 11.9577,26.1408 10.6243,27.1408 9.5,28.5C 9.85549,29.5223 10.5222,30.189 11.5,30.5C 11.1667,31.8333 10.8333,33.1667 10.5,34.5C 8.82351,35.1834 8.15684,36.5168 8.5,38.5C 10.1667,38.5 11.8333,38.5 13.5,38.5C 13.7373,39.791 13.404,40.791 12.5,41.5C 10.528,42.451 8.52797,43.451 6.5,44.5C 6.95689,45.2975 7.62356,45.6309 8.5,45.5C 7.49751,47.0109 6.83084,48.6776 6.5,50.5C 4.95186,50.8212 4.28519,51.8212 4.5,53.5C 3.27493,52.8478 2.60826,51.6811 2.5,50C 3.64425,43.5815 5.47758,37.4148 8,31.5C 8.21206,28.6685 8.37873,26.0018 8.5,23.5C 11.8433,22.4928 15.1766,21.4928 18.5,20.5C 24.4802,21.1987 30.4802,21.6987 36.5,22C 37.3805,22.7083 38.0472,23.5416 38.5,24.5 Z"/></g>
<g><path style="opacity:1" fill="#f6444d" d="M 58.5,34.5 C 60.1667,34.5 61.8333,34.5 63.5,34.5C 63.5,34.8333 63.5,35.1667 63.5,35.5C 62.596,36.209 62.2627,37.209 62.5,38.5C 61.1667,38.5 59.8333,38.5 58.5,38.5C 58.5,37.1667 58.5,35.8333 58.5,34.5 Z"/></g>
<g><path style="opacity:1" fill="#f55357" d="M 10.5,34.5 C 11.5,34.5 12.5,34.5 13.5,34.5C 13.5,34.8333 13.5,35.1667 13.5,35.5C 12.375,36.3478 12.375,37.3478 13.5,38.5C 11.8333,38.5 10.1667,38.5 8.5,38.5C 8.15684,36.5168 8.82351,35.1834 10.5,34.5 Z"/></g>
<g><path style="opacity:1" fill="#f83945" d="M 82.5,34.5 C 81.9094,35.1515 81.2427,35.8182 80.5,36.5C 81.2427,37.1818 81.9094,37.8485 82.5,38.5C 81.5,38.5 80.5,38.5 79.5,38.5C 79.5,37.1667 79.5,35.8333 79.5,34.5C 80.5,34.5 81.5,34.5 82.5,34.5 Z"/></g>
<g><path style="opacity:1" fill="#f55e68" d="M 82.5,34.5 C 83.1667,34.5 83.8333,34.5 84.5,34.5C 83.1667,35.8333 83.1667,37.1667 84.5,38.5C 83.8333,38.5 83.1667,38.5 82.5,38.5C 81.9094,37.8485 81.2427,37.1818 80.5,36.5C 81.2427,35.8182 81.9094,35.1515 82.5,34.5 Z"/></g>
<g><path style="opacity:1" fill="#f0d3d3" d="M 97.5,26.5 C 97.5,28.1667 97.5,29.8333 97.5,31.5C 96.6993,33.0418 96.366,34.7085 96.5,36.5C 95.0762,38.5145 94.4095,40.8478 94.5,43.5C 92.961,50.6508 91.2943,57.6508 89.5,64.5C 89.5,62.8333 89.5,61.1667 89.5,59.5C 83.4908,59.6662 77.4908,59.4995 71.5,59C 70.944,58.6174 70.6107,58.1174 70.5,57.5C 74.5,57.5 78.5,57.5 82.5,57.5C 82.7148,55.8212 82.0481,54.8212 80.5,54.5C 80.4326,53.0413 80.7659,51.7079 81.5,50.5C 81.8333,50.5 82.1667,50.5 82.5,50.5C 82.8333,50.5 83.1667,50.5 83.5,50.5C 83.0472,51.4584 82.3805,52.2917 81.5,53C 84.4228,54.6322 87.4228,54.7988 90.5,53.5C 91.8069,52.135 91.8069,50.8016 90.5,49.5C 91.7736,48.8106 91.7736,47.9772 90.5,47C 88.5273,46.5045 86.5273,46.3379 84.5,46.5C 84.1961,45.8501 83.8627,45.1835 83.5,44.5C 86.3704,42.352 87.037,39.6853 85.5,36.5C 86.7113,35.1255 87.7113,33.6255 88.5,32C 87.3047,30.4675 87.3047,28.9675 88.5,27.5C 91.4281,26.5159 94.4281,26.1826 97.5,26.5 Z"/></g>
<g><path style="opacity:1" fill="#fdf5f3" d="M 88.5,34.5 C 90.5,34.5 92.5,34.5 94.5,34.5C 94.5,35.8333 94.5,37.1667 94.5,38.5C 92.4727,38.6621 90.4727,38.4955 88.5,38C 87.3157,36.8545 87.3157,35.6879 88.5,34.5 Z"/></g>
<g><path style="opacity:1" fill="#f5e0df" d="M 74.5,37.5 C 74.5,37.8333 74.5,38.1667 74.5,38.5C 73.8826,38.6107 73.3826,38.944 73,39.5C 72.5034,41.8098 72.3367,44.1432 72.5,46.5C 71.7814,48.7638 71.448,51.0971 71.5,53.5C 70.8333,53.5 70.5,53.8333 70.5,54.5C 67.272,55.4137 63.9387,55.7471 60.5,55.5C 60.5,54.8333 60.1667,54.5 59.5,54.5C 59.4326,53.0413 59.7659,51.7079 60.5,50.5C 62.9237,49.9695 65.257,49.1362 67.5,48C 65.6183,47.8019 63.9516,47.3019 62.5,46.5C 62.534,44.4772 63.2007,42.3106 64.5,40C 64.2272,38.4672 63.8938,36.9672 63.5,35.5C 64.7079,34.7659 66.0413,34.4326 67.5,34.5C 69.7925,34.7564 71.9592,34.4231 74,33.5C 74.49,34.7932 74.6567,36.1266 74.5,37.5 Z"/></g>
<g><path style="opacity:1" fill="#e0c5c4" d="M 13.5,35.5 C 13.8333,35.5 14.1667,35.5 14.5,35.5C 14.5394,36.5832 14.8728,37.5832 15.5,38.5C 38.0931,40.6005 37.7598,41.9338 14.5,42.5C 14.7678,40.901 14.4345,39.5676 13.5,38.5C 12.375,37.3478 12.375,36.3478 13.5,35.5 Z"/></g>
<g><path style="opacity:1" fill="#f5a5a8" d="M 74.5,38.5 C 73.8505,40.4352 73.5172,42.4352 73.5,44.5C 73.6716,45.4916 73.3382,46.1583 72.5,46.5C 72.3367,44.1432 72.5034,41.8098 73,39.5C 73.3826,38.944 73.8826,38.6107 74.5,38.5 Z"/></g>
<g><path style="opacity:1" fill="#f1e0e0" d="M 17.5,33.5 C 24.1667,33.5 30.8333,33.5 37.5,33.5C 38.4916,33.3284 39.1583,33.6618 39.5,34.5C 32.4684,34.1697 25.4684,34.503 18.5,35.5C 18.1667,36.1667 17.8333,36.8333 17.5,37.5C 23.8072,38.3306 30.1406,38.8306 36.5,39C 37.8333,40 37.8333,41 36.5,42C 28.8686,43.0689 21.2019,43.5689 13.5,43.5C 13.5,42.8333 13.8333,42.5 14.5,42.5C 37.7598,41.9338 38.0931,40.6005 15.5,38.5C 14.8728,37.5832 14.5394,36.5832 14.5,35.5C 15.5,34.8333 16.5,34.1667 17.5,33.5 Z"/></g>
<g><path style="opacity:1" fill="#e55861" d="M 62.5,41.5 C 61.3995,42.6049 60.7329,43.9382 60.5,45.5C 60.1667,45.5 59.8333,45.5 59.5,45.5C 58.3657,43.0399 59.3657,41.7066 62.5,41.5 Z"/></g>
<g><path style="opacity:1" fill="#de7170" d="M 96.5,36.5 C 96.5,37.8333 96.5,39.1667 96.5,40.5C 95.8333,41.5 95.1667,42.5 94.5,43.5C 94.4095,40.8478 95.0762,38.5145 96.5,36.5 Z"/></g>
<g><path style="opacity:1" fill="#fcf3f1" d="M 39.5,34.5 C 40.3127,36.2608 41.3127,37.9275 42.5,39.5C 42.5,41.8333 42.5,44.1667 42.5,46.5C 32.5,46.5 22.5,46.5 12.5,46.5C 12.2627,45.209 12.596,44.209 13.5,43.5C 21.2019,43.5689 28.8686,43.0689 36.5,42C 37.8333,41 37.8333,40 36.5,39C 30.1406,38.8306 23.8072,38.3306 17.5,37.5C 17.8333,36.8333 18.1667,36.1667 18.5,35.5C 25.4684,34.503 32.4684,34.1697 39.5,34.5 Z"/></g>
<g><path style="opacity:1" fill="#be3536" d="M 74.5,37.5 C 74.8333,37.5 75.1667,37.5 75.5,37.5C 75.5905,40.1522 74.9238,42.4855 73.5,44.5C 73.5172,42.4352 73.8505,40.4352 74.5,38.5C 74.5,38.1667 74.5,37.8333 74.5,37.5 Z"/></g>
<g><path style="opacity:1" fill="#f0545a" d="M 12.5,41.5 C 11.3995,42.6049 10.7329,43.9382 10.5,45.5C 9.83333,45.5 9.16667,45.5 8.5,45.5C 7.62356,45.6309 6.95689,45.2975 6.5,44.5C 8.52797,43.451 10.528,42.451 12.5,41.5 Z"/></g>
<g><path style="opacity:1" fill="#de9091" d="M 13.5,38.5 C 14.4345,39.5676 14.7678,40.901 14.5,42.5C 13.8333,42.5 13.5,42.8333 13.5,43.5C 12.596,44.209 12.2627,45.209 12.5,46.5C 12.7148,48.1788 12.0481,49.1788 10.5,49.5C 11.6857,48.0387 11.6857,46.7054 10.5,45.5C 10.7329,43.9382 11.3995,42.6049 12.5,41.5C 13.404,40.791 13.7373,39.791 13.5,38.5 Z"/></g>
<g><path style="opacity:1" fill="#f2aaad" d="M 63.5,35.5 C 63.8938,36.9672 64.2272,38.4672 64.5,40C 63.2007,42.3106 62.534,44.4772 62.5,46.5C 62.1667,46.5 61.8333,46.5 61.5,46.5C 60.8333,46.5 60.5,46.1667 60.5,45.5C 60.7329,43.9382 61.3995,42.6049 62.5,41.5C 63.8333,40.5 63.8333,39.5 62.5,38.5C 62.2627,37.209 62.596,36.209 63.5,35.5 Z"/></g>
<g><path style="opacity:1" fill="#ef4a4c" d="M 83.5,41.5 C 82.3995,42.6049 81.7329,43.9382 81.5,45.5C 80.0222,45.762 78.6888,45.4287 77.5,44.5C 79.2433,42.9617 81.2433,41.9617 83.5,41.5 Z"/></g>
<g><path style="opacity:1" fill="#a81518" d="M 8.5,45.5 C 9.16667,45.5 9.83333,45.5 10.5,45.5C 11.6857,46.7054 11.6857,48.0387 10.5,49.5C 10.5,49.8333 10.5,50.1667 10.5,50.5C 9.16667,50.5 7.83333,50.5 6.5,50.5C 6.83084,48.6776 7.49751,47.0109 8.5,45.5 Z"/></g>
<g><path style="opacity:1" fill="#c11316" d="M 58.5,38.5 C 59.8333,38.5 61.1667,38.5 62.5,38.5C 63.8333,39.5 63.8333,40.5 62.5,41.5C 59.3657,41.7066 58.3657,43.0399 59.5,45.5C 59.5,47.1667 59.5,48.8333 59.5,50.5C 58.5,50.5 57.5,50.5 56.5,50.5C 56.5,51.8333 56.5,53.1667 56.5,54.5C 57.5,54.5 58.5,54.5 59.5,54.5C 59.6085,56.5138 58.9418,58.1805 57.5,59.5C 56.8333,59.5 56.1667,59.5 55.5,59.5C 55.6226,56.993 55.2892,54.3263 54.5,51.5C 54.2569,49.0785 55.2569,47.4118 57.5,46.5C 57.3764,45.8933 57.0431,45.56 56.5,45.5C 57.0147,43.1055 57.6814,40.7722 58.5,38.5 Z"/></g>
<g><path style="opacity:1" fill="#c3aaaa" d="M 83.5,46.5 C 83.8333,46.5 84.1667,46.5 84.5,46.5C 86.5273,46.3379 88.5273,46.5045 90.5,47C 91.7736,47.9772 91.7736,48.8106 90.5,49.5C 88.2362,50.2186 85.9029,50.552 83.5,50.5C 83.1667,50.5 82.8333,50.5 82.5,50.5C 83.2341,49.2921 83.5674,47.9587 83.5,46.5 Z"/></g>
<g><path style="opacity:1" fill="#dcbcbd" d="M 42.5,39.5 C 43.8333,46.8333 43.8333,54.1667 42.5,61.5C 42.5,57.5 42.5,53.5 42.5,49.5C 38.7687,49.1851 35.4353,50.1851 32.5,52.5C 34.0225,54.2825 36.0225,54.9492 38.5,54.5C 38.67,55.8221 38.3366,56.9887 37.5,58C 35.5273,58.4955 33.5273,58.6621 31.5,58.5C 31.7678,56.901 31.4345,55.5676 30.5,54.5C 29.7659,53.2921 29.4326,51.9587 29.5,50.5C 29.8333,50.5 30.1667,50.5 30.5,50.5C 31.6266,49.8783 32.6266,49.045 33.5,48C 29.6425,47.1901 25.9758,47.3567 22.5,48.5C 21.5655,49.5676 21.2322,50.901 21.5,52.5C 21.405,54.7857 20.7384,56.7857 19.5,58.5C 19.7038,55.4824 20.0371,52.4824 20.5,49.5C 17.0177,49.1271 14.0177,50.1271 11.5,52.5C 13.0225,54.2825 15.0225,54.9492 17.5,54.5C 17.67,55.8221 17.3366,56.9887 16.5,58C 13.6924,58.0186 11.3591,59.0186 9.5,61C 10.9047,62.2692 12.5714,62.7692 14.5,62.5C 14.5,63.8333 14.5,65.1667 14.5,66.5C 12.5,66.5 10.5,66.5 8.5,66.5C 8.5,66.1667 8.5,65.8333 8.5,65.5C 9.83333,64.5 9.83333,63.5 8.5,62.5C 8.58499,60.0712 9.58499,58.0712 11.5,56.5C 11.1445,55.4777 10.4778,54.811 9.5,54.5C 9.43255,53.0413 9.76589,51.7079 10.5,50.5C 10.5,50.1667 10.5,49.8333 10.5,49.5C 12.0481,49.1788 12.7148,48.1788 12.5,46.5C 22.5,46.5 32.5,46.5 42.5,46.5C 42.5,44.1667 42.5,41.8333 42.5,39.5 Z"/></g>
<g><path style="opacity:1" fill="#a37171" d="M 22.5,48.5 C 25.9758,47.3567 29.6425,47.1901 33.5,48C 32.6266,49.045 31.6266,49.8783 30.5,50.5C 28.3647,48.631 25.6981,47.9644 22.5,48.5 Z"/></g>
<g><path style="opacity:1" fill="#a03b3a" d="M 22.5,48.5 C 25.6981,47.9644 28.3647,48.631 30.5,50.5C 30.1667,50.5 29.8333,50.5 29.5,50.5C 28.1667,50.5 26.8333,50.5 25.5,50.5C 25.44,49.9569 25.1067,49.6236 24.5,49.5C 23.265,50.3398 22.265,51.3398 21.5,52.5C 21.2322,50.901 21.5655,49.5676 22.5,48.5 Z"/></g>
<g><path style="opacity:1" fill="#9e2427" d="M 59.5,45.5 C 59.8333,45.5 60.1667,45.5 60.5,45.5C 60.5,46.1667 60.8333,46.5 61.5,46.5C 61.5674,47.9587 61.2341,49.2921 60.5,50.5C 60.1667,50.5 59.8333,50.5 59.5,50.5C 59.5,48.8333 59.5,47.1667 59.5,45.5 Z"/></g>
<g><path style="opacity:1" fill="#b38c8e" d="M 61.5,46.5 C 61.8333,46.5 62.1667,46.5 62.5,46.5C 63.9516,47.3019 65.6183,47.8019 67.5,48C 65.257,49.1362 62.9237,49.9695 60.5,50.5C 61.2341,49.2921 61.5674,47.9587 61.5,46.5 Z"/></g>
<g><path style="opacity:1" fill="#a73d40" d="M 81.5,45.5 C 82.1667,45.8333 82.8333,46.1667 83.5,46.5C 83.5674,47.9587 83.2341,49.2921 82.5,50.5C 82.1667,50.5 81.8333,50.5 81.5,50.5C 81.5,48.8333 81.5,47.1667 81.5,45.5 Z"/></g>
<g><path style="opacity:1" fill="#b71e1b" d="M 42.5,36.5 C 43.1174,36.6107 43.6174,36.944 44,37.5C 45.8753,55.4635 44.042,72.7968 38.5,89.5C 38.1667,89.5 37.8333,89.5 37.5,89.5C 37.5,88.5 37.5,87.5 37.5,86.5C 38.475,83.9333 39.1417,81.2666 39.5,78.5C 40.4682,76.3926 40.8016,74.0593 40.5,71.5C 42.1745,68.4928 42.8412,65.1595 42.5,61.5C 43.8333,54.1667 43.8333,46.8333 42.5,39.5C 42.5,38.5 42.5,37.5 42.5,36.5 Z"/></g>
<g><path style="opacity:1" fill="#e05d62" d="M 25.5,50.5 C 26.8333,50.5 28.1667,50.5 29.5,50.5C 29.4326,51.9587 29.7659,53.2921 30.5,54.5C 27.9368,54.2687 26.2702,52.9354 25.5,50.5 Z"/></g>
<g><path style="opacity:1" fill="#ec5c62" d="M 59.5,50.5 C 59.8333,50.5 60.1667,50.5 60.5,50.5C 59.7659,51.7079 59.4326,53.0413 59.5,54.5C 58.5,54.5 57.5,54.5 56.5,54.5C 56.5,53.1667 56.5,51.8333 56.5,50.5C 57.5,50.5 58.5,50.5 59.5,50.5 Z"/></g>
<g><path style="opacity:1" fill="#e55d65" d="M 6.5,50.5 C 7.83333,50.5 9.16667,50.5 10.5,50.5C 9.76589,51.7079 9.43255,53.0413 9.5,54.5C 7.79864,53.7886 6.79864,52.4553 6.5,50.5 Z"/></g>
<g><path style="opacity:1" fill="#f9eceb" d="M 90.5,49.5 C 91.8069,50.8016 91.8069,52.135 90.5,53.5C 87.4228,54.7988 84.4228,54.6322 81.5,53C 82.3805,52.2917 83.0472,51.4584 83.5,50.5C 85.9029,50.552 88.2362,50.2186 90.5,49.5 Z"/></g>
<g><path style="opacity:1" fill="#c51515" d="M 25.5,50.5 C 26.2702,52.9354 27.9368,54.2687 30.5,54.5C 30.634,56.2915 30.3007,57.9582 29.5,59.5C 28.325,59.281 27.325,59.6143 26.5,60.5C 27.8848,61.5505 28.8848,62.8839 29.5,64.5C 27.703,65.6951 26.703,67.3618 26.5,69.5C 25.0047,69.5852 24.0047,68.9185 23.5,67.5C 24.7571,64.1769 24.7571,60.8435 23.5,57.5C 22.1455,60.5917 20.8122,63.5917 19.5,66.5C 19.5,65.1667 19.5,63.8333 19.5,62.5C 19.5,61.1667 19.5,59.8333 19.5,58.5C 20.7384,56.7857 21.405,54.7857 21.5,52.5C 22.265,51.3398 23.265,50.3398 24.5,49.5C 25.1067,49.6236 25.44,49.9569 25.5,50.5 Z"/></g>
<g><path style="opacity:1" fill="#c34045" d="M 81.5,50.5 C 80.7659,51.7079 80.4326,53.0413 80.5,54.5C 77.6272,56.6268 74.6272,56.9601 71.5,55.5C 73.1667,55.5 74.8333,55.5 76.5,55.5C 75.8333,51.5 77.5,49.8333 81.5,50.5 Z"/></g>
<g><path style="opacity:1" fill="#c71d1e" d="M 6.5,50.5 C 6.79864,52.4553 7.79864,53.7886 9.5,54.5C 9.60849,56.5138 8.94183,58.1805 7.5,59.5C 3.69003,60.2458 3.69003,61.2458 7.5,62.5C 7.5,63.5 7.5,64.5 7.5,65.5C 6.83333,65.8333 6.16667,66.1667 5.5,66.5C 4.5,66.5 3.5,66.5 2.5,66.5C 3.62253,64.4816 3.62253,62.4816 2.5,60.5C 3.12285,58.2895 4.12285,56.2895 5.5,54.5C 5.37642,53.8933 5.04309,53.56 4.5,53.5C 4.28519,51.8212 4.95186,50.8212 6.5,50.5 Z"/></g>
<g><path style="opacity:1" fill="#b87678" d="M 71.5,53.5 C 71.5,54.1667 71.5,54.8333 71.5,55.5C 74.6272,56.9601 77.6272,56.6268 80.5,54.5C 82.0481,54.8212 82.7148,55.8212 82.5,57.5C 78.5,57.5 74.5,57.5 70.5,57.5C 70.5,56.5 70.5,55.5 70.5,54.5C 70.5,53.8333 70.8333,53.5 71.5,53.5 Z"/></g>
<g><path style="opacity:1" fill="#cb7477" d="M 59.5,54.5 C 60.1667,54.5 60.5,54.8333 60.5,55.5C 60.9118,57.9726 59.9118,59.3059 57.5,59.5C 58.9418,58.1805 59.6085,56.5138 59.5,54.5 Z"/></g>
<g><path style="opacity:1" fill="#e09997" d="M 9.5,54.5 C 10.4778,54.811 11.1445,55.4777 11.5,56.5C 9.58499,58.0712 8.58499,60.0712 8.5,62.5C 8.16667,62.5 7.83333,62.5 7.5,62.5C 7.5,61.5 7.5,60.5 7.5,59.5C 8.94183,58.1805 9.60849,56.5138 9.5,54.5 Z"/></g>
<g><path style="opacity:1" fill="#d30103" d="M 26.5,69.5 C 26.719,70.675 26.3857,71.675 25.5,72.5C 23.739,73.0351 22.4057,74.0351 21.5,75.5C 21.2627,76.791 21.596,77.791 22.5,78.5C 21.713,80.1042 20.3797,80.7709 18.5,80.5C 18.4372,75.7971 18.7705,71.1304 19.5,66.5C 20.8122,63.5917 22.1455,60.5917 23.5,57.5C 24.7571,60.8435 24.7571,64.1769 23.5,67.5C 24.0047,68.9185 25.0047,69.5852 26.5,69.5 Z"/></g>
<g><path style="opacity:1" fill="#d1080c" d="M 56.5,45.5 C 57.0431,45.56 57.3764,45.8933 57.5,46.5C 55.2569,47.4118 54.2569,49.0785 54.5,51.5C 55.2892,54.3263 55.6226,56.993 55.5,59.5C 56.4385,61.9103 56.4385,64.2436 55.5,66.5C 54.1667,66.5 52.8333,66.5 51.5,66.5C 51.2627,67.791 51.596,68.791 52.5,69.5C 52.6085,71.5138 51.9418,73.1805 50.5,74.5C 48.9652,77.3298 49.9652,78.6631 53.5,78.5C 53.7709,80.3797 53.1042,81.713 51.5,82.5C 50.1667,82.8333 48.8333,83.1667 47.5,83.5C 47.5504,78.4125 48.5504,73.5791 50.5,69C 49.6137,66.1925 49.447,63.3592 50,60.5C 50.414,60.0426 50.914,59.7093 51.5,59.5C 52.1667,55.5 52.8333,51.5 53.5,47.5C 54.7387,47.0576 55.7387,46.3909 56.5,45.5 Z"/></g>
<g><path style="opacity:1" fill="#e85c61" d="M 7.5,59.5 C 7.5,60.5 7.5,61.5 7.5,62.5C 3.69003,61.2458 3.69003,60.2458 7.5,59.5 Z"/></g>
<g><path style="opacity:1" fill="#faefee" d="M 19.5,58.5 C 19.5,59.8333 19.5,61.1667 19.5,62.5C 18.0762,64.5145 17.4095,66.8478 17.5,69.5C 17.5,70.5 17.5,71.5 17.5,72.5C 16.0762,74.5145 15.4095,76.8478 15.5,79.5C 14.5655,80.5676 14.2322,81.901 14.5,83.5C 13.5655,84.5676 13.2322,85.901 13.5,87.5C 10.6085,86.5975 7.60853,86.2641 4.5,86.5C 4.42082,85.0695 4.75415,83.7362 5.5,82.5C 10.0051,81.2281 10.3384,79.5614 6.5,77.5C 7.91223,76.1936 9.57889,75.3603 11.5,75C 12.3366,73.9887 12.67,72.8221 12.5,71.5C 10.8333,71.5 9.16667,71.5 7.5,71.5C 5.97663,69.4143 6.30997,67.7476 8.5,66.5C 10.5,66.5 12.5,66.5 14.5,66.5C 14.5,65.1667 14.5,63.8333 14.5,62.5C 12.5714,62.7692 10.9047,62.2692 9.5,61C 11.3591,59.0186 13.6924,58.0186 16.5,58C 17.3366,56.9887 17.67,55.8221 17.5,54.5C 15.0225,54.9492 13.0225,54.2825 11.5,52.5C 14.0177,50.1271 17.0177,49.1271 20.5,49.5C 20.0371,52.4824 19.7038,55.4824 19.5,58.5 Z"/></g>
<g><path style="opacity:1" fill="#b98082" d="M 30.5,54.5 C 31.4345,55.5676 31.7678,56.901 31.5,58.5C 30.6971,59.4232 30.5304,60.4232 31,61.5C 33.1474,62.1125 35.314,62.7792 37.5,63.5C 37.1373,64.1835 36.8039,64.8501 36.5,65.5C 34.5,65.5 32.5,65.5 30.5,65.5C 30.1667,63.5 29.8333,61.5 29.5,59.5C 30.3007,57.9582 30.634,56.2915 30.5,54.5 Z"/></g>
<g><path style="opacity:1" fill="#dec4c4" d="M 70.5,54.5 C 70.5,55.5 70.5,56.5 70.5,57.5C 67.4776,57.9808 64.4776,58.6475 61.5,59.5C 61.1667,60.1667 60.8333,60.8333 60.5,61.5C 63.0865,62.48 65.7531,62.8134 68.5,62.5C 68.4226,63.7498 67.756,64.5831 66.5,65C 64.1667,65.3333 61.8333,65.6667 59.5,66C 58.1772,66.8159 57.5106,67.9826 57.5,69.5C 56.8333,69.5 56.1667,69.5 55.5,69.5C 55.1667,69.5 54.8333,69.5 54.5,69.5C 54.3284,68.5084 54.6618,67.8417 55.5,67.5C 58.7976,65.5926 59.4642,62.9259 57.5,59.5C 59.9118,59.3059 60.9118,57.9726 60.5,55.5C 63.9387,55.7471 67.272,55.4137 70.5,54.5 Z"/></g>
<g><path style="opacity:1" fill="#a74c4b" d="M 7.5,62.5 C 7.83333,62.5 8.16667,62.5 8.5,62.5C 9.83333,63.5 9.83333,64.5 8.5,65.5C 8.16667,65.5 7.83333,65.5 7.5,65.5C 7.5,64.5 7.5,63.5 7.5,62.5 Z"/></g>
<g><path style="opacity:1" fill="#c85a5c" d="M 55.5,59.5 C 56.1667,59.5 56.8333,59.5 57.5,59.5C 59.4642,62.9259 58.7976,65.5926 55.5,67.5C 55.5,67.1667 55.5,66.8333 55.5,66.5C 56.4385,64.2436 56.4385,61.9103 55.5,59.5 Z"/></g>
<g><path style="opacity:1" fill="#fae4e4" d="M 42.5,61.5 C 42.8412,65.1595 42.1745,68.4928 40.5,71.5C 38.5,71.5 36.5,71.5 34.5,71.5C 34.1667,71.5 33.8333,71.5 33.5,71.5C 32.032,70.2209 31.3653,68.5542 31.5,66.5C 33.4147,66.7845 35.0813,66.4511 36.5,65.5C 36.8039,64.8501 37.1373,64.1835 37.5,63.5C 35.314,62.7792 33.1474,62.1125 31,61.5C 30.5304,60.4232 30.6971,59.4232 31.5,58.5C 33.5273,58.6621 35.5273,58.4955 37.5,58C 38.3366,56.9887 38.67,55.8221 38.5,54.5C 36.0225,54.9492 34.0225,54.2825 32.5,52.5C 35.4353,50.1851 38.7687,49.1851 42.5,49.5C 42.5,53.5 42.5,57.5 42.5,61.5 Z"/></g>
<g><path style="opacity:1" fill="#d85255" d="M 29.5,59.5 C 29.8333,61.5 30.1667,63.5 30.5,65.5C 29.3995,66.6049 28.7329,67.9382 28.5,69.5C 27.8333,69.5 27.1667,69.5 26.5,69.5C 26.703,67.3618 27.703,65.6951 29.5,64.5C 28.8848,62.8839 27.8848,61.5505 26.5,60.5C 27.325,59.6143 28.325,59.281 29.5,59.5 Z"/></g>
<g><path style="opacity:1" fill="#f5bebf" d="M 30.5,65.5 C 32.5,65.5 34.5,65.5 36.5,65.5C 35.0813,66.4511 33.4147,66.7845 31.5,66.5C 31.3653,68.5542 32.032,70.2209 33.5,71.5C 32.1667,71.5 30.8333,71.5 29.5,71.5C 29.6716,70.5084 29.3382,69.8417 28.5,69.5C 28.7329,67.9382 29.3995,66.6049 30.5,65.5 Z"/></g>
<g><path style="opacity:1" fill="#f04b51" d="M 55.5,66.5 C 55.5,66.8333 55.5,67.1667 55.5,67.5C 54.6618,67.8417 54.3284,68.5084 54.5,69.5C 53.8333,69.5 53.1667,69.5 52.5,69.5C 51.596,68.791 51.2627,67.791 51.5,66.5C 52.8333,66.5 54.1667,66.5 55.5,66.5 Z"/></g>
<g><path style="opacity:1" fill="#ef4d55" d="M 2.5,66.5 C 3.5,66.5 4.5,66.5 5.5,66.5C 4.57075,67.3149 3.57075,68.1482 2.5,69C 3.4158,69.2784 4.08247,69.7784 4.5,70.5C 4.16667,70.5 3.83333,70.5 3.5,70.5C 1.15819,69.7893 0.824855,68.456 2.5,66.5 Z"/></g>
<g><path style="opacity:1" fill="#e07b80" d="M 19.5,62.5 C 19.5,63.8333 19.5,65.1667 19.5,66.5C 18.8333,67.5 18.1667,68.5 17.5,69.5C 17.4095,66.8478 18.0762,64.5145 19.5,62.5 Z"/></g>
<g><path style="opacity:1" fill="#eddfdf" d="M 68.5,62.5 C 71.8499,62.335 75.1832,62.5017 78.5,63C 79.9733,63.7096 80.6399,64.8762 80.5,66.5C 74.4908,66.3338 68.4908,66.5005 62.5,67C 61.09,67.3678 60.09,68.2011 59.5,69.5C 67.6567,70.1667 75.6567,70.8334 83.5,71.5C 74.8333,71.5 66.1667,71.5 57.5,71.5C 57.5,70.8333 57.5,70.1667 57.5,69.5C 57.5106,67.9826 58.1772,66.8159 59.5,66C 61.8333,65.6667 64.1667,65.3333 66.5,65C 67.756,64.5831 68.4226,63.7498 68.5,62.5 Z"/></g>
<g><path style="opacity:1" fill="#cdc0c0" d="M 57.5,71.5 C 66.1667,71.5 74.8333,71.5 83.5,71.5C 75.2312,73.4698 66.5645,74.1364 57.5,73.5C 57.5,72.8333 57.5,72.1667 57.5,71.5 Z"/></g>
<g><path style="opacity:1" fill="#c02d27" d="M 96.5,40.5 C 94.8341,52.1436 92.1674,63.477 88.5,74.5C 88.1667,74.5 87.8333,74.5 87.5,74.5C 88.6427,71.3161 89.3094,67.9827 89.5,64.5C 91.2943,57.6508 92.961,50.6508 94.5,43.5C 95.1667,42.5 95.8333,41.5 96.5,40.5 Z"/></g>
<g><path style="opacity:1" fill="#b41417" d="M 26.5,69.5 C 27.1667,69.5 27.8333,69.5 28.5,69.5C 29.3382,69.8417 29.6716,70.5084 29.5,71.5C 29.1667,72.1667 28.8333,72.8333 28.5,73.5C 27.2905,73.9321 26.2905,74.5987 25.5,75.5C 24.1667,75.5 22.8333,75.5 21.5,75.5C 22.4057,74.0351 23.739,73.0351 25.5,72.5C 26.3857,71.675 26.719,70.675 26.5,69.5 Z"/></g>
<g><path style="opacity:1" fill="#935657" d="M 29.5,71.5 C 30.8333,71.5 32.1667,71.5 33.5,71.5C 33.8333,71.5 34.1667,71.5 34.5,71.5C 34.1788,73.0481 33.1788,73.7148 31.5,73.5C 30.5,73.5 29.5,73.5 28.5,73.5C 28.8333,72.8333 29.1667,72.1667 29.5,71.5 Z"/></g>
<g><path style="opacity:1" fill="#b21519" d="M 52.5,69.5 C 53.1667,69.5 53.8333,69.5 54.5,69.5C 54.8333,69.5 55.1667,69.5 55.5,69.5C 55.5,70.8333 55.5,72.1667 55.5,73.5C 54.1667,73.8333 52.8333,74.1667 51.5,74.5C 51.1667,74.5 50.8333,74.5 50.5,74.5C 51.9418,73.1805 52.6085,71.5138 52.5,69.5 Z"/></g>
<g><path style="opacity:1" fill="#cc878a" d="M 55.5,69.5 C 56.1667,69.5 56.8333,69.5 57.5,69.5C 57.5,70.1667 57.5,70.8333 57.5,71.5C 57.5,72.1667 57.5,72.8333 57.5,73.5C 56.8333,73.5 56.1667,73.5 55.5,73.5C 55.5,72.1667 55.5,70.8333 55.5,69.5 Z"/></g>
<g><path style="opacity:1" fill="#dfc2c1" d="M 34.5,71.5 C 36.5,71.5 38.5,71.5 40.5,71.5C 40.8016,74.0593 40.4682,76.3926 39.5,78.5C 39.5,77.1667 39.5,75.8333 39.5,74.5C 35.7687,74.1851 32.4353,75.1851 29.5,77.5C 30.9501,78.8498 31.6168,80.5165 31.5,82.5C 29.5,82.5 27.5,82.5 25.5,82.5C 27.7471,81.094 28.0804,79.2607 26.5,77C 27.921,75.3771 29.5876,74.2105 31.5,73.5C 33.1788,73.7148 34.1788,73.0481 34.5,71.5 Z"/></g>
<g><path style="opacity:1" fill="#faf0ef" d="M 70.5,57.5 C 70.6107,58.1174 70.944,58.6174 71.5,59C 77.4908,59.4995 83.4908,59.6662 89.5,59.5C 89.5,61.1667 89.5,62.8333 89.5,64.5C 89.3094,67.9827 88.6427,71.3161 87.5,74.5C 87.5,75.1667 87.5,75.8333 87.5,76.5C 86.7109,76.7828 86.0442,77.2828 85.5,78C 75.5056,78.4998 65.5056,78.6665 55.5,78.5C 54.1667,76.8333 54.1667,75.1667 55.5,73.5C 56.1667,73.5 56.8333,73.5 57.5,73.5C 66.5645,74.1364 75.2312,73.4698 83.5,71.5C 75.6567,70.8334 67.6567,70.1667 59.5,69.5C 60.09,68.2011 61.09,67.3678 62.5,67C 68.4908,66.5005 74.4908,66.3338 80.5,66.5C 80.6399,64.8762 79.9733,63.7096 78.5,63C 75.1832,62.5017 71.8499,62.335 68.5,62.5C 65.7531,62.8134 63.0865,62.48 60.5,61.5C 60.8333,60.8333 61.1667,60.1667 61.5,59.5C 64.4776,58.6475 67.4776,57.9808 70.5,57.5 Z"/></g>
<g><path style="opacity:1" fill="#ee454d" d="M 50.5,74.5 C 50.8333,74.5 51.1667,74.5 51.5,74.5C 51.3893,75.1174 51.056,75.6174 50.5,76C 51.5707,76.8518 52.5707,77.6851 53.5,78.5C 49.9652,78.6631 48.9652,77.3298 50.5,74.5 Z"/></g>
<g><path style="opacity:1" fill="#d97c81" d="M 7.5,65.5 C 7.83333,65.5 8.16667,65.5 8.5,65.5C 8.5,65.8333 8.5,66.1667 8.5,66.5C 6.30997,67.7476 5.97663,69.4143 7.5,71.5C 6.04275,73.6282 5.04275,75.9616 4.5,78.5C 4.04688,75.7257 4.04688,73.059 4.5,70.5C 4.08247,69.7784 3.4158,69.2784 2.5,69C 3.57075,68.1482 4.57075,67.3149 5.5,66.5C 6.16667,66.1667 6.83333,65.8333 7.5,65.5 Z"/></g>
<g><path style="opacity:1" fill="#cf3a3b" d="M 3.5,70.5 C 3.83333,70.5 4.16667,70.5 4.5,70.5C 4.04688,73.059 4.04688,75.7257 4.5,78.5C 3.83333,81.1667 3.16667,83.8333 2.5,86.5C 2.16667,86.5 1.83333,86.5 1.5,86.5C 0.833333,86.5 0.166667,86.5 -0.5,86.5C -0.5,82.5 -0.5,78.5 -0.5,74.5C 2.17901,74.4754 3.51234,73.142 3.5,70.5 Z"/></g>
<g><path style="opacity:1" fill="#f24850" d="M 21.5,75.5 C 22.8333,75.5 24.1667,75.5 25.5,75.5C 25.5,76.5 25.5,77.5 25.5,78.5C 24.5,78.5 23.5,78.5 22.5,78.5C 21.596,77.791 21.2627,76.791 21.5,75.5 Z"/></g>
<g><path style="opacity:1" fill="#cc7879" d="M 28.5,73.5 C 29.5,73.5 30.5,73.5 31.5,73.5C 29.5876,74.2105 27.921,75.3771 26.5,77C 28.0804,79.2607 27.7471,81.094 25.5,82.5C 23.8102,82.8564 22.8102,83.8564 22.5,85.5C 22.5,86.8333 22.5,88.1667 22.5,89.5C 18.9878,90.0545 15.9878,89.3878 13.5,87.5C 13.2322,85.901 13.5655,84.5676 14.5,83.5C 14.5,84.8333 14.5,86.1667 14.5,87.5C 17.3878,88.0102 19.7211,87.3435 21.5,85.5C 21.5,84.8333 21.5,84.1667 21.5,83.5C 23.5554,82.4412 24.8888,80.7746 25.5,78.5C 25.5,77.5 25.5,76.5 25.5,75.5C 26.2905,74.5987 27.2905,73.9321 28.5,73.5 Z"/></g>
<g><path style="opacity:1" fill="#cc5c5b" d="M 17.5,72.5 C 17.5905,75.1522 16.9238,77.4855 15.5,79.5C 15.4095,76.8478 16.0762,74.5145 17.5,72.5 Z"/></g>
<g><path style="opacity:1" fill="#d18b8b" d="M 75.5,82.5 C 74.7659,83.7079 74.4326,85.0413 74.5,86.5C 74.5228,88.5996 73.8561,90.4329 72.5,92C 72.5699,92.7648 72.9033,93.2648 73.5,93.5C 80.1337,95.4634 79.8004,96.9634 72.5,98C 71.1772,98.8159 70.5106,99.9826 70.5,101.5C 70.1667,101.5 69.8333,101.5 69.5,101.5C 69.4326,100.041 69.7659,98.7079 70.5,97.5C 71.4778,97.189 72.1445,96.5223 72.5,95.5C 71.546,92.2059 71.546,89.2059 72.5,86.5C 72.3832,84.5165 73.0499,82.8498 74.5,81.5C 71.1259,80.2495 67.7926,80.2495 64.5,81.5C 67.6843,79.5864 71.351,78.9197 75.5,79.5C 75.5,80.5 75.5,81.5 75.5,82.5 Z"/></g>
<g><path style="opacity:1" fill="#bb1112" d="M 19.5,66.5 C 18.7705,71.1304 18.4372,75.7971 18.5,80.5C 20.3797,80.7709 21.713,80.1042 22.5,78.5C 23.5,78.5 24.5,78.5 25.5,78.5C 24.8888,80.7746 23.5554,82.4412 21.5,83.5C 19.5168,83.1568 18.1834,83.8235 17.5,85.5C 17.44,86.0431 17.1067,86.3764 16.5,86.5C 15.5258,84.2573 15.1924,81.924 15.5,79.5C 16.9238,77.4855 17.5905,75.1522 17.5,72.5C 17.5,71.5 17.5,70.5 17.5,69.5C 18.1667,68.5 18.8333,67.5 19.5,66.5 Z"/></g>
<g><path style="opacity:1" fill="#dabcbb" d="M 87.5,76.5 C 86.4887,79.9404 85.4887,83.2737 84.5,86.5C 84.6602,84.8008 84.4935,83.1341 84,81.5C 81.2809,82.4438 78.4475,82.7771 75.5,82.5C 75.5,81.5 75.5,80.5 75.5,79.5C 71.351,78.9197 67.6843,79.5864 64.5,81.5C 64.6716,82.4916 64.3382,83.1583 63.5,83.5C 63.2089,82.3509 62.3756,81.6842 61,81.5C 56.9454,81.3824 54.4454,83.2157 53.5,87C 54.8333,87.3333 56.1667,87.6667 57.5,88C 55.8421,89.6625 53.8421,90.4959 51.5,90.5C 51.5,91.5 51.5,92.5 51.5,93.5C 50.6618,93.1583 50.3284,92.4916 50.5,91.5C 50.5,91.1667 50.5,90.8333 50.5,90.5C 51.8062,89.5326 52.4729,88.1993 52.5,86.5C 53.5,83.8333 54.5,81.1667 55.5,78.5C 65.5056,78.6665 75.5056,78.4998 85.5,78C 86.0442,77.2828 86.7109,76.7828 87.5,76.5 Z"/></g>
<g><path style="opacity:1" fill="#e07a7e" d="M 55.5,73.5 C 54.1667,75.1667 54.1667,76.8333 55.5,78.5C 54.5,81.1667 53.5,83.8333 52.5,86.5C 51.8333,86.5 51.5,86.1667 51.5,85.5C 51.5,84.5 51.5,83.5 51.5,82.5C 53.1042,81.713 53.7709,80.3797 53.5,78.5C 52.5707,77.6851 51.5707,76.8518 50.5,76C 51.056,75.6174 51.3893,75.1174 51.5,74.5C 52.8333,74.1667 54.1667,73.8333 55.5,73.5 Z"/></g>
<g><path style="opacity:1" fill="#f46163" d="M 21.5,83.5 C 21.5,84.1667 21.5,84.8333 21.5,85.5C 20.1667,85.5 18.8333,85.5 17.5,85.5C 18.1834,83.8235 19.5168,83.1568 21.5,83.5 Z"/></g>
<g><path style="opacity:1" fill="#f5424c" d="M 51.5,82.5 C 51.5,83.5 51.5,84.5 51.5,85.5C 50.8333,85.8333 50.1667,86.1667 49.5,86.5C 48.8333,86.1667 48.1667,85.8333 47.5,85.5C 47.5,84.8333 47.5,84.1667 47.5,83.5C 48.8333,83.1667 50.1667,82.8333 51.5,82.5 Z"/></g>
<g><path style="opacity:1" fill="#bf3a3a" d="M 72.5,86.5 C 71.1667,86.1667 69.8333,85.8333 68.5,85.5C 69.9559,82.5689 69.1226,81.9022 66,83.5C 64.908,86.0444 64.2414,88.7111 64,91.5C 63.6174,92.056 63.1174,92.3893 62.5,92.5C 62.9629,89.5176 63.2962,86.5176 63.5,83.5C 64.3382,83.1583 64.6716,82.4916 64.5,81.5C 67.7926,80.2495 71.1259,80.2495 74.5,81.5C 73.0499,82.8498 72.3832,84.5165 72.5,86.5 Z"/></g>
<g><path style="opacity:1" fill="#ae3e3f" d="M 15.5,79.5 C 15.1924,81.924 15.5258,84.2573 16.5,86.5C 17.1067,86.3764 17.44,86.0431 17.5,85.5C 18.8333,85.5 20.1667,85.5 21.5,85.5C 19.7211,87.3435 17.3878,88.0102 14.5,87.5C 14.5,86.1667 14.5,84.8333 14.5,83.5C 14.2322,81.901 14.5655,80.5676 15.5,79.5 Z"/></g>
<g><path style="opacity:1" fill="#9d0c13" d="M -0.5,86.5 C 0.166667,86.5 0.833333,86.5 1.5,86.5C 1.5,87.5 1.5,88.5 1.5,89.5C 0.833333,89.8333 0.166667,90.1667 -0.5,90.5C -0.5,89.1667 -0.5,87.8333 -0.5,86.5 Z"/></g>
<g><path style="opacity:1" fill="#865456" d="M 1.5,86.5 C 1.83333,86.5 2.16667,86.5 2.5,86.5C 10.323,88.0775 10.323,89.0775 2.5,89.5C 2.16667,89.5 1.83333,89.5 1.5,89.5C 1.5,88.5 1.5,87.5 1.5,86.5 Z"/></g>
<g><path style="opacity:1" fill="#a41c1b" d="M 51.5,85.5 C 51.5,86.1667 51.8333,86.5 52.5,86.5C 52.4729,88.1993 51.8062,89.5326 50.5,90.5C 49.8333,90.5 49.1667,90.5 48.5,90.5C 48.8333,89.1667 49.1667,87.8333 49.5,86.5C 50.1667,86.1667 50.8333,85.8333 51.5,85.5 Z"/></g>
<g><path style="opacity:1" fill="#dfcece" d="M 74.5,86.5 C 77.1667,86.5 79.8333,86.5 82.5,86.5C 82.5,87.5 82.5,88.5 82.5,89.5C 78.8177,89.7109 75.8177,91.0442 73.5,93.5C 72.9033,93.2648 72.5699,92.7648 72.5,92C 73.8561,90.4329 74.5228,88.5996 74.5,86.5 Z"/></g>
<g><path style="opacity:1" fill="#bf2921" d="M 87.5,74.5 C 87.8333,74.5 88.1667,74.5 88.5,74.5C 88.4415,82.3096 86.7749,89.643 83.5,96.5C 83.5,95.8333 83.5,95.1667 83.5,94.5C 83.4013,91.7628 83.7347,89.0961 84.5,86.5C 85.4887,83.2737 86.4887,79.9404 87.5,76.5C 87.5,75.8333 87.5,75.1667 87.5,74.5 Z"/></g>
<g><path style="opacity:1" fill="#d0625e" d="M 37.5,86.5 C 37.5,87.5 37.5,88.5 37.5,89.5C 36.9744,91.2303 35.9744,92.5637 34.5,93.5C 34.9348,90.8427 35.9348,88.5093 37.5,86.5 Z"/></g>
<g><path style="opacity:1" fill="#fcf3f1" d="M 24.5,89.5 C 27.5184,89.3354 30.5184,89.502 33.5,90C 31.2368,93.6201 28.9035,97.2868 26.5,101C 23.1727,101.61 19.8394,102.11 16.5,102.5C 11.2384,102.805 6.07172,102.471 1,101.5C 0.382767,100.551 0.549434,99.7175 1.5,99C 5.19139,98.5804 8.85806,98.0804 12.5,97.5C 12.5,96.5 12.5,95.5 12.5,94.5C 9.48162,94.6646 6.48162,94.498 3.5,94C 3.04265,93.586 2.70931,93.086 2.5,92.5C 9.8374,91.1947 17.1707,90.1947 24.5,89.5 Z"/></g>
<g><path style="opacity:1" fill="#ee4b4f" d="M 48.5,90.5 C 49.1667,90.5 49.8333,90.5 50.5,90.5C 50.5,90.8333 50.5,91.1667 50.5,91.5C 49.6618,91.8417 49.3284,92.5084 49.5,93.5C 48.5,93.5 47.5,93.5 46.5,93.5C 45.596,92.791 45.2627,91.791 45.5,90.5C 46.5,90.5 47.5,90.5 48.5,90.5 Z"/></g>
<g><path style="opacity:1" fill="#ea9191" d="M 1.5,89.5 C 1.83333,89.5 2.16667,89.5 2.5,89.5C 1.69929,91.0418 1.36596,92.7085 1.5,94.5C 0.833333,94.5 0.166667,94.5 -0.5,94.5C -0.5,93.1667 -0.5,91.8333 -0.5,90.5C 0.166667,90.1667 0.833333,89.8333 1.5,89.5 Z"/></g>
<g><path style="opacity:1" fill="#ce0407" d="M 68.5,85.5 C 68.8957,88.0444 68.229,90.2111 66.5,92C 67.8557,94.4141 67.5224,96.5807 65.5,98.5C 65.2627,99.791 65.596,100.791 66.5,101.5C 65.8166,103.176 64.4832,103.843 62.5,103.5C 62.5,99.8333 62.5,96.1667 62.5,92.5C 63.1174,92.3893 63.6174,92.056 64,91.5C 64.2414,88.7111 64.908,86.0444 66,83.5C 69.1226,81.9022 69.9559,82.5689 68.5,85.5 Z"/></g>
<g><path style="opacity:1" fill="#bc2722" d="M 99.5,88.5 C 99.5,89.1667 99.5,89.8333 99.5,90.5C 97.5165,93.7994 96.5165,97.4661 96.5,101.5C 95.8333,105.167 95.1667,108.833 94.5,112.5C 94.1667,112.5 93.8333,112.5 93.5,112.5C 94.0198,105.081 95.1864,97.7481 97,90.5C 97.7083,89.6195 98.5416,88.9528 99.5,88.5 Z"/></g>
<g><path style="opacity:1" fill="#f19397" d="M 99.5,90.5 C 99.5,91.8333 99.5,93.1667 99.5,94.5C 98.3485,96.7791 97.3485,99.1124 96.5,101.5C 96.5165,97.4661 97.5165,93.7994 99.5,90.5 Z"/></g>
<g><path style="opacity:1" fill="#9f4141" d="M -0.5,94.5 C 0.166667,94.5 0.833333,94.5 1.5,94.5C 1.71481,96.1788 1.04814,97.1788 -0.5,97.5C -0.5,96.5 -0.5,95.5 -0.5,94.5 Z"/></g>
<g><path style="opacity:1" fill="#d18389" d="M 50.5,91.5 C 50.3284,92.4916 50.6618,93.1583 51.5,93.5C 53.1751,95.456 52.8418,96.7893 50.5,97.5C 50.5674,96.0413 50.2341,94.7079 49.5,93.5C 49.3284,92.5084 49.6618,91.8417 50.5,91.5 Z"/></g>
<g><path style="opacity:1" fill="#f9e6e6" d="M 63.5,83.5 C 63.2962,86.5176 62.9629,89.5176 62.5,92.5C 61.5655,93.5676 61.2322,94.901 61.5,96.5C 60.0762,98.5145 59.4095,100.848 59.5,103.5C 59.5,104.5 59.5,105.5 59.5,106.5C 58.8571,108.076 57.8571,109.41 56.5,110.5C 53.8127,110.664 51.146,110.497 48.5,110C 47.0844,108.085 47.4178,106.585 49.5,105.5C 57.5,104.5 57.5,103.5 49.5,102.5C 49.5,101.833 49.1667,101.5 48.5,101.5C 48.7329,99.9382 49.3995,98.6049 50.5,97.5C 52.8418,96.7893 53.1751,95.456 51.5,93.5C 51.5,92.5 51.5,91.5 51.5,90.5C 53.8421,90.4959 55.8421,89.6625 57.5,88C 56.1667,87.6667 54.8333,87.3333 53.5,87C 54.4454,83.2157 56.9454,81.3824 61,81.5C 62.3756,81.6842 63.2089,82.3509 63.5,83.5 Z"/></g>
<g><path style="opacity:1" fill="#b41215" d="M 46.5,93.5 C 47.5,93.5 48.5,93.5 49.5,93.5C 50.2341,94.7079 50.5674,96.0413 50.5,97.5C 48.5648,98.1495 46.5648,98.4828 44.5,98.5C 45.9418,97.1805 46.6085,95.5138 46.5,93.5 Z"/></g>
<g><path style="opacity:1" fill="#bd1b1b" d="M 68.5,85.5 C 69.8333,85.8333 71.1667,86.1667 72.5,86.5C 71.546,89.2059 71.546,92.2059 72.5,95.5C 72.1445,96.5223 71.4778,97.189 70.5,97.5C 68.7839,97.6287 67.1172,97.962 65.5,98.5C 67.5224,96.5807 67.8557,94.4141 66.5,92C 68.229,90.2111 68.8957,88.0444 68.5,85.5 Z"/></g>
<g><path style="opacity:1" fill="#d8b9ba" d="M 7.5,71.5 C 9.16667,71.5 10.8333,71.5 12.5,71.5C 12.67,72.8221 12.3366,73.9887 11.5,75C 9.57889,75.3603 7.91223,76.1936 6.5,77.5C 10.3384,79.5614 10.0051,81.2281 5.5,82.5C 4.75415,83.7362 4.42082,85.0695 4.5,86.5C 7.60853,86.2641 10.6085,86.5975 13.5,87.5C 15.9878,89.3878 18.9878,90.0545 22.5,89.5C 22.5,88.1667 22.5,86.8333 22.5,85.5C 23.3446,86.6715 24.0113,88.0048 24.5,89.5C 17.1707,90.1947 9.8374,91.1947 2.5,92.5C 2.70931,93.086 3.04265,93.586 3.5,94C 6.48162,94.498 9.48162,94.6646 12.5,94.5C 12.5,95.5 12.5,96.5 12.5,97.5C 8.85806,98.0804 5.19139,98.5804 1.5,99C 0.549434,99.7175 0.382767,100.551 1,101.5C 6.07172,102.471 11.2384,102.805 16.5,102.5C 15.8478,103.725 14.6811,104.392 13,104.5C 8.5302,105.264 4.0302,105.597 -0.5,105.5C -0.5,102.833 -0.5,100.167 -0.5,97.5C 1.04814,97.1788 1.71481,96.1788 1.5,94.5C 1.36596,92.7085 1.69929,91.0418 2.5,89.5C 10.323,89.0775 10.323,88.0775 2.5,86.5C 3.16667,83.8333 3.83333,81.1667 4.5,78.5C 5.04275,75.9616 6.04275,73.6282 7.5,71.5 Z"/></g>
<g><path style="opacity:1" fill="#e75559" d="M 70.5,97.5 C 69.7659,98.7079 69.4326,100.041 69.5,101.5C 68.5,101.5 67.5,101.5 66.5,101.5C 65.596,100.791 65.2627,99.791 65.5,98.5C 67.1172,97.962 68.7839,97.6287 70.5,97.5 Z"/></g>
<g><path style="opacity:1" fill="#ee6161" d="M 50.5,97.5 C 49.3995,98.6049 48.7329,99.9382 48.5,101.5C 47.1667,101.5 45.8333,101.5 44.5,101.5C 43.1667,100.5 43.1667,99.5 44.5,98.5C 46.5648,98.4828 48.5648,98.1495 50.5,97.5 Z"/></g>
<g><path style="opacity:1" fill="#df7172" d="M 83.5,94.5 C 83.5,95.1667 83.5,95.8333 83.5,96.5C 83.5,97.1667 83.5,97.8333 83.5,98.5C 82.8333,99.5 82.1667,100.5 81.5,101.5C 81.4095,98.8478 82.0762,96.5145 83.5,94.5 Z"/></g>
<g><path style="opacity:1" fill="#f8e6e5" d="M 39.5,78.5 C 39.1417,81.2666 38.475,83.9333 37.5,86.5C 35.9348,88.5093 34.9348,90.8427 34.5,93.5C 33.9044,95.7454 32.9044,97.7454 31.5,99.5C 28.3908,103.397 25.0574,107.064 21.5,110.5C 14.1667,110.5 6.83333,110.5 -0.5,110.5C -0.5,108.833 -0.5,107.167 -0.5,105.5C 4.0302,105.597 8.5302,105.264 13,104.5C 14.6811,104.392 15.8478,103.725 16.5,102.5C 19.8394,102.11 23.1727,101.61 26.5,101C 28.9035,97.2868 31.2368,93.6201 33.5,90C 30.5184,89.502 27.5184,89.3354 24.5,89.5C 24.0113,88.0048 23.3446,86.6715 22.5,85.5C 22.8102,83.8564 23.8102,82.8564 25.5,82.5C 27.5,82.5 29.5,82.5 31.5,82.5C 31.6168,80.5165 30.9501,78.8498 29.5,77.5C 32.4353,75.1851 35.7687,74.1851 39.5,74.5C 39.5,75.8333 39.5,77.1667 39.5,78.5 Z"/></g>
<g><path style="opacity:1" fill="#e48383" d="M 61.5,96.5 C 61.5905,99.1522 60.9238,101.485 59.5,103.5C 59.4095,100.848 60.0762,98.5145 61.5,96.5 Z"/></g>
<g><path style="opacity:1" fill="#ba1411" d="M 62.5,92.5 C 62.5,96.1667 62.5,99.8333 62.5,103.5C 64.4832,103.843 65.8166,103.176 66.5,101.5C 67.5,101.5 68.5,101.5 69.5,101.5C 69.8333,101.5 70.1667,101.5 70.5,101.5C 70.5,101.833 70.5,102.167 70.5,102.5C 70.4431,103.609 70.1098,104.609 69.5,105.5C 68.5084,105.328 67.8417,105.662 67.5,106.5C 66.1667,106.5 64.8333,106.5 63.5,106.5C 62.5,106.5 61.5,106.5 60.5,106.5C 60.78,109.272 60.1134,111.772 58.5,114C 54.7887,114.825 51.122,114.659 47.5,113.5C 46.3698,112.378 45.7031,111.044 45.5,109.5C 45.8333,109.5 46.1667,109.5 46.5,109.5C 46.8333,110.5 47.5,111.167 48.5,111.5C 51.3035,112.638 54.3035,112.805 57.5,112C 59.1554,110.556 59.822,108.722 59.5,106.5C 59.5,105.5 59.5,104.5 59.5,103.5C 60.9238,101.485 61.5905,99.1522 61.5,96.5C 61.2322,94.901 61.5655,93.5676 62.5,92.5 Z"/></g>
<g><path style="opacity:1" fill="#c20a08" d="M 37.5,89.5 C 37.8333,89.5 38.1667,89.5 38.5,89.5C 38.6633,91.8568 38.4966,94.1902 38,96.5C 35.1627,99.5177 32.8294,102.851 31,106.5C 28.0167,108.484 25.35,110.817 23,113.5C 15.2102,114.453 7.37683,114.786 -0.5,114.5C -0.5,113.833 -0.5,113.167 -0.5,112.5C 5.84209,112.666 12.1754,112.5 18.5,112C 19.7375,111.768 20.7375,111.268 21.5,110.5C 23.679,110.16 25.5123,109.16 27,107.5C 29.1569,105.183 30.6569,102.516 31.5,99.5C 32.9044,97.7454 33.9044,95.7454 34.5,93.5C 35.9744,92.5637 36.9744,91.2303 37.5,89.5 Z"/></g>
<g><path style="opacity:1" fill="#ae090b" d="M 44.5,101.5 C 45.8333,101.5 47.1667,101.5 48.5,101.5C 48.6085,103.514 47.9418,105.18 46.5,106.5C 44.8333,106.5 43.1667,106.5 41.5,106.5C 41.5,105.5 41.5,104.5 41.5,103.5C 43.1788,103.715 44.1788,103.048 44.5,101.5 Z"/></g>
<g><path style="opacity:1" fill="#d20204" d="M 47.5,85.5 C 48.1667,85.8333 48.8333,86.1667 49.5,86.5C 49.1667,87.8333 48.8333,89.1667 48.5,90.5C 47.5,90.5 46.5,90.5 45.5,90.5C 45.2627,91.791 45.596,92.791 46.5,93.5C 46.6085,95.5138 45.9418,97.1805 44.5,98.5C 43.1667,99.5 43.1667,100.5 44.5,101.5C 44.1788,103.048 43.1788,103.715 41.5,103.5C 41.5,104.5 41.5,105.5 41.5,106.5C 42.4475,107.978 43.7809,108.978 45.5,109.5C 45.7031,111.044 46.3698,112.378 47.5,113.5C 51.122,114.659 54.7887,114.825 58.5,114C 60.1134,111.772 60.78,109.272 60.5,106.5C 61.5,106.5 62.5,106.5 63.5,106.5C 64.2114,108.201 65.5447,109.201 67.5,109.5C 67.5,110.167 67.8333,110.5 68.5,110.5C 68.6107,111.117 68.944,111.617 69.5,112C 73.234,112.491 76.9007,112.824 80.5,113C 81.0892,109.296 82.0892,105.796 83.5,102.5C 83.0779,106.879 82.4112,111.212 81.5,115.5C 78.2223,115.342 75.889,117.009 74.5,120.5C 68.9869,113.194 62.6535,112.194 55.5,117.5C 50.6469,117.653 46.3135,115.987 42.5,112.5C 41.914,112.709 41.414,113.043 41,113.5C 40.0138,111.222 39.1805,108.889 38.5,106.5C 42.5315,100.908 44.6982,94.5747 45,87.5C 45.4169,86.244 46.2502,85.5774 47.5,85.5 Z"/></g>
<g><path style="opacity:1" fill="#f7555a" d="M 63.5,106.5 C 64.8333,106.5 66.1667,106.5 67.5,106.5C 67.5,107.5 67.5,108.5 67.5,109.5C 65.5447,109.201 64.2114,108.201 63.5,106.5 Z"/></g>
<g><path style="opacity:1" fill="#f7545f" d="M 41.5,106.5 C 43.1667,106.5 44.8333,106.5 46.5,106.5C 46.5,107.5 46.5,108.5 46.5,109.5C 46.1667,109.5 45.8333,109.5 45.5,109.5C 43.7809,108.978 42.4475,107.978 41.5,106.5 Z"/></g>
<g><path style="opacity:1" fill="#c39a9c" d="M 70.5,102.5 C 76.9073,103.868 76.574,104.868 69.5,105.5C 70.1098,104.609 70.4431,103.609 70.5,102.5 Z"/></g>
<g><path style="opacity:1" fill="#c8aaae" d="M 49.5,102.5 C 57.5,103.5 57.5,104.5 49.5,105.5C 49.5,104.5 49.5,103.5 49.5,102.5 Z"/></g>
<g><path style="opacity:1" fill="#f9e3e2" d="M 84.5,86.5 C 83.7347,89.0961 83.4013,91.7628 83.5,94.5C 82.0762,96.5145 81.4095,98.8478 81.5,101.5C 80.8505,103.435 80.5172,105.435 80.5,107.5C 79.6618,107.842 79.3284,108.508 79.5,109.5C 75.8333,109.5 72.1667,109.5 68.5,109.5C 68.4326,108.041 68.7659,106.708 69.5,105.5C 76.574,104.868 76.9073,103.868 70.5,102.5C 70.5,102.167 70.5,101.833 70.5,101.5C 70.5106,99.9826 71.1772,98.8159 72.5,98C 79.8004,96.9634 80.1337,95.4634 73.5,93.5C 75.8177,91.0442 78.8177,89.7109 82.5,89.5C 82.5,88.5 82.5,87.5 82.5,86.5C 79.8333,86.5 77.1667,86.5 74.5,86.5C 74.4326,85.0413 74.7659,83.7079 75.5,82.5C 78.4475,82.7771 81.2809,82.4438 84,81.5C 84.4935,83.1341 84.6602,84.8008 84.5,86.5 Z"/></g>
<g><path style="opacity:1" fill="#e06c6f" d="M 31.5,99.5 C 30.6569,102.516 29.1569,105.183 27,107.5C 25.5123,109.16 23.679,110.16 21.5,110.5C 25.0574,107.064 28.3908,103.397 31.5,99.5 Z"/></g>
<g><path style="opacity:1" fill="#f5a9aa" d="M 69.5,105.5 C 68.7659,106.708 68.4326,108.041 68.5,109.5C 72.1667,109.5 75.8333,109.5 79.5,109.5C 76.7131,110.477 73.7131,110.81 70.5,110.5C 69.8333,110.5 69.1667,110.5 68.5,110.5C 67.8333,110.5 67.5,110.167 67.5,109.5C 67.5,108.5 67.5,107.5 67.5,106.5C 67.8417,105.662 68.5084,105.328 69.5,105.5 Z"/></g>
<g><path style="opacity:1" fill="#da7b7d" d="M 48.5,101.5 C 49.1667,101.5 49.5,101.833 49.5,102.5C 49.5,103.5 49.5,104.5 49.5,105.5C 47.4178,106.585 47.0844,108.085 48.5,110C 51.146,110.497 53.8127,110.664 56.5,110.5C 54.0521,111.473 51.3854,111.806 48.5,111.5C 47.5,111.167 46.8333,110.5 46.5,109.5C 46.5,108.5 46.5,107.5 46.5,106.5C 47.9418,105.18 48.6085,103.514 48.5,101.5 Z"/></g>
<g><path style="opacity:1" fill="#d9696a" d="M 80.5,107.5 C 80.5,108.833 80.5,110.167 80.5,111.5C 76.9581,111.813 73.6248,111.479 70.5,110.5C 73.7131,110.81 76.7131,110.477 79.5,109.5C 79.3284,108.508 79.6618,107.842 80.5,107.5 Z"/></g>
<g><path style="opacity:1" fill="#fef4f3" d="M 99.5,94.5 C 99.5,104.833 99.5,115.167 99.5,125.5C 97.5,125.5 95.5,125.5 93.5,125.5C 94.1995,121.202 94.5328,116.869 94.5,112.5C 95.1667,108.833 95.8333,105.167 96.5,101.5C 97.3485,99.1124 98.3485,96.7791 99.5,94.5 Z"/></g>
<g><path style="opacity:1" fill="#ca4d4e" d="M -0.5,110.5 C 6.83333,110.5 14.1667,110.5 21.5,110.5C 20.7375,111.268 19.7375,111.768 18.5,112C 12.1754,112.5 5.84209,112.666 -0.5,112.5C -0.5,111.833 -0.5,111.167 -0.5,110.5 Z"/></g>
<g><path style="opacity:1" fill="#c93e41" d="M 59.5,106.5 C 59.822,108.722 59.1554,110.556 57.5,112C 54.3035,112.805 51.3035,112.638 48.5,111.5C 51.3854,111.806 54.0521,111.473 56.5,110.5C 57.8571,109.41 58.8571,108.076 59.5,106.5 Z"/></g>
<g><path style="opacity:1" fill="#bf201e" d="M 83.5,98.5 C 83.5,99.8333 83.5,101.167 83.5,102.5C 82.0892,105.796 81.0892,109.296 80.5,113C 76.9007,112.824 73.234,112.491 69.5,112C 68.944,111.617 68.6107,111.117 68.5,110.5C 69.1667,110.5 69.8333,110.5 70.5,110.5C 73.6248,111.479 76.9581,111.813 80.5,111.5C 80.5,110.167 80.5,108.833 80.5,107.5C 80.5172,105.435 80.8505,103.435 81.5,101.5C 82.1667,100.5 82.8333,99.5 83.5,98.5 Z"/></g>
<g><path style="opacity:1" fill="#fccac8" d="M 93.5,112.5 C 93.8333,112.5 94.1667,112.5 94.5,112.5C 94.5328,116.869 94.1995,121.202 93.5,125.5C 95.5,125.5 97.5,125.5 99.5,125.5C 99.5,126.167 99.5,126.833 99.5,127.5C 96.8333,127.5 94.1667,127.5 91.5,127.5C 91.652,123.076 92.3187,118.743 93.5,114.5C 93.5,113.833 93.5,113.167 93.5,112.5 Z"/></g>
<g><path style="opacity:1" fill="#be211f" d="M 93.5,114.5 C 92.3187,118.743 91.652,123.076 91.5,127.5C 91.5,128.167 91.5,128.833 91.5,129.5C 91.1667,129.5 90.8333,129.5 90.5,129.5C 90.335,126.15 90.5017,122.817 91,119.5C 91.0995,117.347 91.9328,115.681 93.5,114.5 Z"/></g>
<g><path style="opacity:1" fill="#a14742" d="M 91.5,127.5 C 94.1667,127.5 96.8333,127.5 99.5,127.5C 99.5,128.167 99.5,128.833 99.5,129.5C 96.8333,129.5 94.1667,129.5 91.5,129.5C 91.5,128.833 91.5,128.167 91.5,127.5 Z"/></g>
</svg>
